<svg width="464" height="19" viewBox="0 0 464 19" fill="none" xmlns="http://www.w3.org/2000/svg">
<path d="M87.5419 1.16016C87.9952 1.16016 88.3552 1.29349 88.6218 1.56016C88.9018 1.81349 89.0419 2.16016 89.0419 2.60016C89.0419 3.04016 88.9018 3.39349 88.6218 3.66016C88.3552 3.92682 87.9952 4.06016 87.5419 4.06016C87.0752 4.06016 86.7019 3.92682 86.4219 3.66016C86.1552 3.39349 86.0219 3.04016 86.0219 2.60016C86.0219 2.16016 86.1552 1.81349 86.4219 1.56016C86.7019 1.29349 87.0752 1.16016 87.5419 1.16016ZM87.5419 8.66016C87.9952 8.66016 88.3552 8.79349 88.6218 9.06016C88.9018 9.31349 89.0419 9.66016 89.0419 10.1002C89.0419 10.5402 88.9018 10.8935 88.6218 11.1602C88.3552 11.4268 87.9952 11.5602 87.5419 11.5602C87.0752 11.5602 86.7019 11.4268 86.4219 11.1602C86.1552 10.8935 86.0219 10.5402 86.0219 10.1002C86.0219 9.66016 86.1552 9.31349 86.4219 9.06016C86.7019 8.79349 87.0752 8.66016 87.5419 8.66016Z" fill="#2947A9"/>
<path d="M78.8794 11.52C77.6261 11.52 76.5794 11.3267 75.7394 10.94C74.9127 10.54 74.2527 10.0067 73.7594 9.34L75.0394 7.92C75.3994 8.53333 75.9061 9.00667 76.5594 9.34C77.2127 9.66 78.0061 9.82 78.9394 9.82C79.4861 9.82 79.9461 9.76667 80.3194 9.66C80.7061 9.55333 80.9994 9.39333 81.1994 9.18C81.4127 8.96667 81.5194 8.7 81.5194 8.38C81.5194 8.11333 81.4394 7.88667 81.2794 7.7C81.1327 7.51333 80.9261 7.36 80.6594 7.24C80.3927 7.10667 80.0861 7.00667 79.7394 6.94L77.4594 6.5C76.8461 6.38 76.2861 6.20667 75.7794 5.98C75.2727 5.75333 74.8727 5.44 74.5794 5.04C74.2861 4.62667 74.1394 4.1 74.1394 3.46C74.1394 2.80667 74.3261 2.22 74.6994 1.7C75.0727 1.18 75.6127 0.766667 76.3194 0.46C77.0261 0.153333 77.8594 0 78.8194 0C79.5661 0 80.2327 0.0800002 80.8194 0.24C81.4061 0.386667 81.9261 0.626667 82.3794 0.96C82.8327 1.28 83.2394 1.68 83.5994 2.16L82.3194 3.56C82.0261 3.12 81.7127 2.76 81.3794 2.48C81.0594 2.2 80.6927 2 80.2794 1.88C79.8794 1.74667 79.3927 1.68 78.8194 1.68C78.0061 1.68 77.3794 1.84667 76.9394 2.18C76.4994 2.5 76.2794 2.88 76.2794 3.32C76.2794 3.6 76.3594 3.83333 76.5194 4.02C76.6794 4.19333 76.8994 4.33333 77.1794 4.44C77.4727 4.54667 77.7994 4.64 78.1594 4.72L80.5594 5.2C81.1327 5.30667 81.6527 5.48 82.1194 5.72C82.5861 5.94667 82.9594 6.25333 83.2394 6.64C83.5194 7.01333 83.6594 7.5 83.6594 8.1C83.6594 8.80667 83.4594 9.42 83.0594 9.94C82.6594 10.4467 82.0994 10.84 81.3794 11.12C80.6727 11.3867 79.8394 11.52 78.8794 11.52Z" fill="#2947A9"/>
<path d="M67.3169 11.52C66.0636 11.52 65.0169 11.3267 64.1769 10.94C63.3502 10.54 62.6902 10.0067 62.1969 9.34L63.4769 7.92C63.8369 8.53333 64.3436 9.00667 64.9969 9.34C65.6502 9.66 66.4436 9.82 67.3769 9.82C67.9236 9.82 68.3836 9.76667 68.7569 9.66C69.1436 9.55333 69.4369 9.39333 69.6369 9.18C69.8502 8.96667 69.9569 8.7 69.9569 8.38C69.9569 8.11333 69.8769 7.88667 69.7169 7.7C69.5702 7.51333 69.3636 7.36 69.0969 7.24C68.8302 7.10667 68.5236 7.00667 68.1769 6.94L65.8969 6.5C65.2836 6.38 64.7236 6.20667 64.2169 5.98C63.7102 5.75333 63.3102 5.44 63.0169 5.04C62.7236 4.62667 62.5769 4.1 62.5769 3.46C62.5769 2.80667 62.7636 2.22 63.1369 1.7C63.5102 1.18 64.0502 0.766667 64.7569 0.46C65.4636 0.153333 66.2969 0 67.2569 0C68.0036 0 68.6702 0.0800002 69.2569 0.24C69.8436 0.386667 70.3636 0.626667 70.8169 0.96C71.2702 1.28 71.6769 1.68 72.0369 2.16L70.7569 3.56C70.4636 3.12 70.1502 2.76 69.8169 2.48C69.4969 2.2 69.1302 2 68.7169 1.88C68.3169 1.74667 67.8302 1.68 67.2569 1.68C66.4436 1.68 65.8169 1.84667 65.3769 2.18C64.9369 2.5 64.7169 2.88 64.7169 3.32C64.7169 3.6 64.7969 3.83333 64.9569 4.02C65.1169 4.19333 65.3369 4.33333 65.6169 4.44C65.9102 4.54667 66.2369 4.64 66.5969 4.72L68.9969 5.2C69.5702 5.30667 70.0902 5.48 70.5569 5.72C71.0236 5.94667 71.3969 6.25333 71.6769 6.64C71.9569 7.01333 72.0969 7.5 72.0969 8.1C72.0969 8.80667 71.8969 9.42 71.4969 9.94C71.0969 10.4467 70.5369 10.84 69.8169 11.12C69.1102 11.3867 68.2769 11.52 67.3169 11.52Z" fill="#2947A9"/>
<path d="M51.673 11.3602V0.160156H60.393V1.84016H53.793V4.88016H58.953V6.52016H53.793V9.68016H60.593V11.3602H51.673Z" fill="#2947A9"/>
<path d="M39.505 11.3602V0.160156H44.465C45.7583 0.160156 46.7783 0.466823 47.525 1.08016C48.285 1.68016 48.665 2.51349 48.665 3.58016C48.665 4.66016 48.285 5.50016 47.525 6.10016C46.7783 6.70016 45.7583 7.00016 44.465 7.00016H41.625V11.3602H39.505ZM46.965 11.3602L43.765 6.50016L45.485 5.72016L49.305 11.3602H46.965ZM41.625 5.42016H44.305C45.0517 5.42016 45.6117 5.27349 45.985 4.98016C46.3583 4.67349 46.545 4.22016 46.545 3.62016C46.545 3.02016 46.3583 2.57349 45.985 2.28016C45.6117 1.97349 45.0517 1.82016 44.305 1.82016H41.625V5.42016Z" fill="#2947A9"/>
<path d="M26.4972 11.3602V0.160156H30.7972C32.6639 0.160156 34.1105 0.646822 35.1372 1.62016C36.1639 2.59349 36.6772 3.96682 36.6772 5.74016C36.6772 7.54016 36.1639 8.92682 35.1372 9.90016C34.1105 10.8735 32.6639 11.3602 30.7972 11.3602H26.4972ZM28.6172 9.64016H30.8772C32.0639 9.64016 32.9705 9.30016 33.5972 8.62016C34.2239 7.94016 34.5372 6.98016 34.5372 5.74016C34.5372 4.50016 34.2239 3.54682 33.5972 2.88016C32.9705 2.21349 32.0639 1.88016 30.8772 1.88016H28.6172V9.64016Z" fill="#2947A9"/>
<path d="M13.4894 11.3602V0.160156H17.7894C19.656 0.160156 21.1027 0.646822 22.1294 1.62016C23.156 2.59349 23.6694 3.96682 23.6694 5.74016C23.6694 7.54016 23.156 8.92682 22.1294 9.90016C21.1027 10.8735 19.656 11.3602 17.7894 11.3602H13.4894ZM15.6094 9.64016H17.8694C19.056 9.64016 19.9627 9.30016 20.5894 8.62016C21.216 7.94016 21.5294 6.98016 21.5294 5.74016C21.5294 4.50016 21.216 3.54682 20.5894 2.88016C19.9627 2.21349 19.056 1.88016 17.8694 1.88016H15.6094V9.64016Z" fill="#2947A9"/>
<path d="M0 11.3602L4.42 0.160156H6.96L11.38 11.3602H9.18L8.12 8.52016H3.24L2.16 11.3602H0ZM3.82 6.88016H7.54L5.68 1.84016L3.82 6.88016Z" fill="#2947A9"/>
<path d="M458.401 1.2002C459.507 1.2002 460.441 1.49353 461.201 2.08019C461.961 2.65353 462.534 3.45353 462.921 4.4802C463.307 5.49353 463.501 6.66686 463.501 8.0002C463.501 9.4802 463.307 10.7269 462.921 11.7402C462.534 12.7402 461.961 13.5002 461.201 14.0202C460.454 14.5402 459.527 14.8002 458.421 14.8002C457.327 14.8002 456.387 14.5469 455.601 14.0402C454.814 13.5335 454.227 12.7935 453.841 11.8202L455.421 10.9802C455.634 11.6735 455.981 12.2335 456.461 12.6602C456.954 13.0869 457.627 13.3002 458.481 13.3002C459.174 13.3002 459.747 13.1669 460.201 12.9002C460.667 12.6202 461.034 12.2269 461.301 11.7202C461.567 11.2002 461.754 10.5802 461.861 9.8602C461.981 9.1402 462.041 8.3402 462.041 7.4602C462.041 7.43353 462.041 7.40686 462.041 7.3802C462.041 7.3402 462.041 7.30686 462.041 7.2802H461.961C461.801 7.8802 461.521 8.36686 461.121 8.7402C460.721 9.1002 460.267 9.3602 459.761 9.5202C459.267 9.6802 458.774 9.7602 458.281 9.7602C457.414 9.7602 456.647 9.59353 455.981 9.2602C455.314 8.91353 454.794 8.43353 454.421 7.8202C454.047 7.20686 453.861 6.4802 453.861 5.6402C453.861 4.73353 454.041 3.95353 454.401 3.3002C454.761 2.63353 455.281 2.1202 455.961 1.7602C456.641 1.38686 457.454 1.2002 458.401 1.2002ZM458.421 2.74019C457.487 2.74019 456.774 3.0002 456.281 3.5202C455.787 4.02686 455.541 4.7402 455.541 5.6602C455.541 6.44686 455.801 7.07353 456.321 7.5402C456.841 7.99353 457.541 8.2202 458.421 8.2202C458.994 8.2202 459.494 8.10686 459.921 7.8802C460.361 7.6402 460.701 7.3202 460.941 6.9202C461.181 6.50686 461.301 6.03353 461.301 5.5002C461.301 4.9402 461.181 4.45353 460.941 4.0402C460.701 3.62686 460.361 3.30686 459.921 3.0802C459.494 2.85353 458.994 2.74019 458.421 2.74019Z" fill="#292E3D"/>
<path d="M446.057 1.2002C447.163 1.2002 448.097 1.49353 448.857 2.08019C449.617 2.65353 450.19 3.45353 450.577 4.4802C450.963 5.49353 451.157 6.66686 451.157 8.0002C451.157 9.4802 450.963 10.7269 450.577 11.7402C450.19 12.7402 449.617 13.5002 448.857 14.0202C448.11 14.5402 447.183 14.8002 446.077 14.8002C444.983 14.8002 444.044 14.5469 443.257 14.0402C442.47 13.5335 441.883 12.7935 441.497 11.8202L443.077 10.9802C443.29 11.6735 443.637 12.2335 444.117 12.6602C444.61 13.0869 445.283 13.3002 446.137 13.3002C446.83 13.3002 447.403 13.1669 447.857 12.9002C448.323 12.6202 448.69 12.2269 448.957 11.7202C449.223 11.2002 449.41 10.5802 449.517 9.8602C449.637 9.1402 449.697 8.3402 449.697 7.4602C449.697 7.43353 449.697 7.40686 449.697 7.3802C449.697 7.3402 449.697 7.30686 449.697 7.2802H449.617C449.457 7.8802 449.177 8.36686 448.777 8.7402C448.377 9.1002 447.923 9.3602 447.417 9.5202C446.923 9.6802 446.43 9.7602 445.937 9.7602C445.07 9.7602 444.303 9.59353 443.637 9.2602C442.97 8.91353 442.45 8.43353 442.077 7.8202C441.703 7.20686 441.517 6.4802 441.517 5.6402C441.517 4.73353 441.697 3.95353 442.057 3.3002C442.417 2.63353 442.937 2.1202 443.617 1.7602C444.297 1.38686 445.11 1.2002 446.057 1.2002ZM446.077 2.74019C445.143 2.74019 444.43 3.0002 443.937 3.5202C443.443 4.02686 443.197 4.7402 443.197 5.6602C443.197 6.44686 443.457 7.07353 443.977 7.5402C444.497 7.99353 445.197 8.2202 446.077 8.2202C446.65 8.2202 447.15 8.10686 447.577 7.8802C448.017 7.6402 448.357 7.3202 448.597 6.9202C448.837 6.50686 448.957 6.03353 448.957 5.5002C448.957 4.9402 448.837 4.45353 448.597 4.0402C448.357 3.62686 448.017 3.30686 447.577 3.0802C447.15 2.85353 446.65 2.74019 446.077 2.74019Z" fill="#292E3D"/>
<path d="M429.937 14.6002V13.3002C431.257 12.3269 432.357 11.4735 433.237 10.7402C434.13 10.0069 434.843 9.3402 435.377 8.7402C435.91 8.14019 436.29 7.57353 436.517 7.0402C436.743 6.49353 436.857 5.92686 436.857 5.3402C436.857 4.55353 436.603 3.9202 436.097 3.4402C435.603 2.94686 434.923 2.7002 434.057 2.7002C433.15 2.7002 432.423 3.0002 431.877 3.6002C431.33 4.18686 431.01 4.97353 430.917 5.9602L429.517 5.1202C429.637 4.34686 429.883 3.66686 430.257 3.0802C430.643 2.49353 431.157 2.03353 431.797 1.7002C432.45 1.36686 433.223 1.2002 434.117 1.2002C434.797 1.2002 435.403 1.3002 435.937 1.5002C436.483 1.7002 436.95 1.98686 437.337 2.3602C437.723 2.7202 438.017 3.15353 438.217 3.66019C438.43 4.16686 438.537 4.72686 438.537 5.3402C438.537 6.16686 438.337 6.9802 437.937 7.7802C437.537 8.56686 436.877 9.39353 435.957 10.2602C435.037 11.1269 433.79 12.0869 432.217 13.1402V13.1602C432.363 13.1469 432.563 13.1402 432.817 13.1402C433.083 13.1269 433.343 13.1202 433.597 13.1202C433.863 13.1069 434.063 13.1002 434.197 13.1002H438.817V14.6002H429.937Z" fill="#292E3D"/>
<path d="M422.235 14.8002C420.742 14.8002 419.549 14.2202 418.655 13.0602C417.762 11.9002 417.315 10.2135 417.315 8.0002C417.315 5.78686 417.762 4.1002 418.655 2.9402C419.549 1.7802 420.742 1.2002 422.235 1.2002C423.742 1.2002 424.935 1.7802 425.815 2.9402C426.709 4.1002 427.155 5.78686 427.155 8.0002C427.155 10.2135 426.709 11.9002 425.815 13.0602C424.935 14.2202 423.742 14.8002 422.235 14.8002ZM422.235 13.3602C422.942 13.3602 423.535 13.1602 424.015 12.7602C424.509 12.3469 424.875 11.7402 425.115 10.9402C425.369 10.1402 425.495 9.1602 425.495 8.0002C425.495 6.8402 425.369 5.8602 425.115 5.06019C424.875 4.2602 424.509 3.6602 424.015 3.2602C423.535 2.84686 422.942 2.64019 422.235 2.64019C421.529 2.64019 420.929 2.84686 420.435 3.2602C419.955 3.6602 419.589 4.2602 419.335 5.06019C419.095 5.8602 418.975 6.8402 418.975 8.0002C418.975 9.1602 419.095 10.1402 419.335 10.9402C419.589 11.7402 419.955 12.3469 420.435 12.7602C420.929 13.1602 421.529 13.3602 422.235 13.3602Z" fill="#292E3D"/>
<path d="M412.382 14.5999V4.9199C412.382 4.69324 412.382 4.45324 412.382 4.1999C412.396 3.93324 412.409 3.6599 412.422 3.3799C411.969 3.8199 411.442 4.20657 410.842 4.5399C410.242 4.8599 409.629 5.09324 409.002 5.2399L408.582 3.7799C408.822 3.75324 409.122 3.66657 409.482 3.5199C409.856 3.3599 410.242 3.16657 410.642 2.9399C411.056 2.6999 411.436 2.44657 411.782 2.1799C412.129 1.91324 412.396 1.65324 412.582 1.3999H413.982V14.5999H412.382Z" fill="#292E3D"/>
<path d="M396.294 14.7999C395.347 14.7999 394.5 14.5932 393.754 14.1799C393.02 13.7666 392.447 13.1732 392.034 12.3999C391.62 11.6132 391.414 10.6799 391.414 9.5999C391.414 8.5199 391.62 7.59324 392.034 6.8199C392.447 6.03324 393.014 5.43324 393.734 5.0199C394.454 4.60657 395.274 4.3999 396.194 4.3999C397.127 4.3999 397.92 4.5999 398.574 4.9999C399.24 5.3999 399.747 5.94657 400.094 6.6399C400.44 7.3199 400.614 8.08657 400.614 8.9399C400.614 9.16657 400.607 9.37324 400.594 9.5599C400.58 9.74657 400.56 9.91324 400.534 10.0599H392.454V8.6399H399.834L399.014 8.7999C399.014 7.8399 398.747 7.0999 398.214 6.5799C397.694 6.0599 397.007 5.7999 396.154 5.7999C395.5 5.7999 394.934 5.95324 394.454 6.2599C393.987 6.55324 393.62 6.98657 393.354 7.5599C393.1 8.1199 392.974 8.7999 392.974 9.5999C392.974 10.3866 393.107 11.0666 393.374 11.6399C393.64 12.2132 394.014 12.6532 394.494 12.9599C394.987 13.2532 395.574 13.3999 396.254 13.3999C396.987 13.3999 397.58 13.2599 398.034 12.9799C398.5 12.6999 398.874 12.3199 399.154 11.8399L400.414 12.5799C400.16 13.0332 399.834 13.4266 399.434 13.7599C399.047 14.0932 398.587 14.3532 398.054 14.5399C397.534 14.7132 396.947 14.7999 396.294 14.7999Z" fill="#292E3D"/>
<path d="M384.262 14.5999V4.5999H385.562L385.782 6.2399C386.062 5.62657 386.469 5.16657 387.002 4.8599C387.549 4.55324 388.209 4.3999 388.982 4.3999C389.155 4.3999 389.342 4.41324 389.542 4.4399C389.755 4.46657 389.935 4.5199 390.082 4.5999L389.802 6.0599C389.655 6.00657 389.495 5.96657 389.322 5.9399C389.149 5.91324 388.902 5.8999 388.582 5.8999C388.169 5.8999 387.749 6.0199 387.322 6.2599C386.909 6.4999 386.562 6.86657 386.282 7.3599C386.002 7.8399 385.862 8.45324 385.862 9.1999V14.5999H384.262Z" fill="#292E3D"/>
<path d="M378.774 8.1399C378.774 7.39324 378.574 6.8199 378.174 6.4199C377.774 6.00657 377.207 5.7999 376.474 5.7999C375.781 5.7999 375.194 5.95324 374.714 6.2599C374.234 6.55324 373.881 7.03324 373.654 7.6999L372.354 6.8999C372.621 6.15324 373.114 5.55324 373.834 5.0999C374.554 4.63324 375.447 4.3999 376.514 4.3999C377.234 4.3999 377.887 4.52657 378.474 4.7799C379.061 5.0199 379.521 5.39324 379.854 5.8999C380.201 6.39324 380.374 7.03324 380.374 7.8199V12.6599C380.374 13.1399 380.627 13.3799 381.134 13.3799C381.387 13.3799 381.634 13.3466 381.874 13.2799L381.794 14.5399C381.527 14.6732 381.181 14.7399 380.754 14.7399C380.367 14.7399 380.021 14.6666 379.714 14.5199C379.407 14.3732 379.167 14.1532 378.994 13.8599C378.821 13.5532 378.734 13.1732 378.734 12.7199V12.5199L379.134 12.5799C378.974 13.0999 378.701 13.5266 378.314 13.8599C377.927 14.1799 377.494 14.4199 377.014 14.5799C376.534 14.7266 376.061 14.7999 375.594 14.7999C375.007 14.7999 374.461 14.6999 373.954 14.4999C373.447 14.2999 373.041 13.9999 372.734 13.5999C372.441 13.1866 372.294 12.6799 372.294 12.0799C372.294 11.3332 372.541 10.7199 373.034 10.2399C373.541 9.74657 374.241 9.41324 375.134 9.2399L379.094 8.4599V9.7799L375.874 10.4399C375.221 10.5732 374.734 10.7599 374.414 10.9999C374.094 11.2399 373.934 11.5732 373.934 11.9999C373.934 12.4132 374.094 12.7532 374.414 13.0199C374.747 13.2732 375.214 13.3999 375.814 13.3999C376.201 13.3999 376.567 13.3532 376.914 13.2599C377.274 13.1532 377.594 12.9999 377.874 12.7999C378.154 12.5866 378.374 12.3266 378.534 12.0199C378.694 11.6999 378.774 11.3266 378.774 10.8999V8.1399Z" fill="#292E3D"/>
<path d="M368.97 4.6001H370.75L367.27 14.6001H365.67L362.85 6.6401L360.19 14.6001H358.59L355.11 4.6001H356.89L359.41 12.7401L362.13 4.6001H363.73L366.45 12.7401L368.97 4.6001Z" fill="#292E3D"/>
<path d="M351.157 8.1399C351.157 7.39324 350.957 6.8199 350.557 6.4199C350.157 6.00657 349.59 5.7999 348.857 5.7999C348.163 5.7999 347.577 5.95324 347.097 6.2599C346.617 6.55324 346.263 7.03324 346.037 7.6999L344.737 6.8999C345.003 6.15324 345.497 5.55324 346.217 5.0999C346.937 4.63324 347.83 4.3999 348.897 4.3999C349.617 4.3999 350.27 4.52657 350.857 4.7799C351.443 5.0199 351.903 5.39324 352.237 5.8999C352.583 6.39324 352.757 7.03324 352.757 7.8199V12.6599C352.757 13.1399 353.01 13.3799 353.517 13.3799C353.77 13.3799 354.017 13.3466 354.257 13.2799L354.177 14.5399C353.91 14.6732 353.563 14.7399 353.137 14.7399C352.75 14.7399 352.403 14.6666 352.097 14.5199C351.79 14.3732 351.55 14.1532 351.377 13.8599C351.203 13.5532 351.117 13.1732 351.117 12.7199V12.5199L351.517 12.5799C351.357 13.0999 351.083 13.5266 350.697 13.8599C350.31 14.1799 349.877 14.4199 349.397 14.5799C348.917 14.7266 348.443 14.7999 347.977 14.7999C347.39 14.7999 346.843 14.6999 346.337 14.4999C345.83 14.2999 345.423 13.9999 345.117 13.5999C344.823 13.1866 344.677 12.6799 344.677 12.0799C344.677 11.3332 344.923 10.7199 345.417 10.2399C345.923 9.74657 346.623 9.41324 347.517 9.2399L351.477 8.4599V9.7799L348.257 10.4399C347.603 10.5732 347.117 10.7599 346.797 10.9999C346.477 11.2399 346.317 11.5732 346.317 11.9999C346.317 12.4132 346.477 12.7532 346.797 13.0199C347.13 13.2732 347.597 13.3999 348.197 13.3999C348.583 13.3999 348.95 13.3532 349.297 13.2599C349.657 13.1532 349.977 12.9999 350.257 12.7999C350.537 12.5866 350.757 12.3266 350.917 12.0199C351.077 11.6999 351.157 11.3266 351.157 10.8999V8.1399Z" fill="#292E3D"/>
<path d="M340.723 0V12.06C340.723 12.5667 340.817 12.92 341.003 13.12C341.19 13.3067 341.49 13.4 341.903 13.4C342.17 13.4 342.39 13.38 342.563 13.34C342.737 13.3 342.97 13.2267 343.263 13.12L343.003 14.52C342.79 14.6133 342.557 14.68 342.303 14.72C342.05 14.7733 341.79 14.8 341.523 14.8C340.71 14.8 340.103 14.58 339.703 14.14C339.317 13.7 339.123 13.0267 339.123 12.12V0H340.723Z" fill="#292E3D"/>
<path d="M331.84 14.7999C330.894 14.7999 330.047 14.5932 329.3 14.1799C328.567 13.7666 327.994 13.1732 327.58 12.3999C327.167 11.6132 326.96 10.6799 326.96 9.5999C326.96 8.5199 327.167 7.59324 327.58 6.8199C327.994 6.03324 328.56 5.43324 329.28 5.0199C330 4.60657 330.82 4.3999 331.74 4.3999C332.674 4.3999 333.467 4.5999 334.12 4.9999C334.787 5.3999 335.294 5.94657 335.64 6.6399C335.987 7.3199 336.16 8.08657 336.16 8.9399C336.16 9.16657 336.154 9.37324 336.14 9.5599C336.127 9.74657 336.107 9.91324 336.08 10.0599H328V8.6399H335.38L334.56 8.7999C334.56 7.8399 334.294 7.0999 333.76 6.5799C333.24 6.0599 332.554 5.7999 331.7 5.7999C331.047 5.7999 330.48 5.95324 330 6.2599C329.534 6.55324 329.167 6.98657 328.9 7.5599C328.647 8.1199 328.52 8.7999 328.52 9.5999C328.52 10.3866 328.654 11.0666 328.92 11.6399C329.187 12.2132 329.56 12.6532 330.04 12.9599C330.534 13.2532 331.12 13.3999 331.8 13.3999C332.534 13.3999 333.127 13.2599 333.58 12.9799C334.047 12.6999 334.42 12.3199 334.7 11.8399L335.96 12.5799C335.707 13.0332 335.38 13.4266 334.98 13.7599C334.594 14.0932 334.134 14.3532 333.6 14.5399C333.08 14.7132 332.494 14.7999 331.84 14.7999Z" fill="#292E3D"/>
<path d="M317.806 1.3999C319.873 1.3999 321.493 1.97324 322.666 3.1199C323.853 4.25324 324.446 5.8799 324.446 7.9999C324.446 10.1199 323.853 11.7532 322.666 12.8999C321.493 14.0332 319.873 14.5999 317.806 14.5999H313.546V1.3999H317.806ZM317.966 13.0999C319.473 13.0999 320.646 12.6532 321.486 11.7599C322.34 10.8532 322.766 9.5999 322.766 7.9999C322.766 6.3999 322.34 5.15324 321.486 4.2599C320.646 3.35324 319.473 2.8999 317.966 2.8999H315.146V13.0999H317.966Z" fill="#292E3D"/>
<path d="M301.917 12.2002C302.237 12.2002 302.504 12.2869 302.717 12.4602C302.944 12.6202 303.117 12.8469 303.237 13.1402C303.357 13.4202 303.417 13.7535 303.417 14.1402C303.417 14.5802 303.337 15.0135 303.177 15.4402C303.031 15.8669 302.797 16.2602 302.477 16.6202C302.157 16.9802 301.744 17.2802 301.237 17.5202L300.397 16.7402C300.757 16.6202 301.071 16.4535 301.337 16.2402C301.617 16.0269 301.844 15.7869 302.017 15.5202C302.191 15.2535 302.304 14.9802 302.357 14.7002L302.277 14.6602C302.224 14.7002 302.157 14.7335 302.077 14.7602C301.997 14.7869 301.877 14.8002 301.717 14.8002C301.557 14.8002 301.391 14.7535 301.217 14.6602C301.057 14.5669 300.917 14.4335 300.797 14.2602C300.677 14.0735 300.617 13.8335 300.617 13.5402C300.617 13.3002 300.677 13.0802 300.797 12.8802C300.917 12.6669 301.071 12.5002 301.257 12.3802C301.457 12.2602 301.677 12.2002 301.917 12.2002Z" fill="#292E3D"/>
<path d="M295.629 8.1399C295.629 7.39324 295.429 6.8199 295.029 6.4199C294.629 6.00657 294.063 5.7999 293.329 5.7999C292.636 5.7999 292.049 5.95324 291.569 6.2599C291.089 6.55324 290.736 7.03324 290.509 7.6999L289.209 6.8999C289.476 6.15324 289.969 5.55324 290.689 5.0999C291.409 4.63324 292.303 4.3999 293.369 4.3999C294.089 4.3999 294.743 4.52657 295.329 4.7799C295.916 5.0199 296.376 5.39324 296.709 5.8999C297.056 6.39324 297.229 7.03324 297.229 7.8199V12.6599C297.229 13.1399 297.483 13.3799 297.989 13.3799C298.243 13.3799 298.489 13.3466 298.729 13.2799L298.649 14.5399C298.383 14.6732 298.036 14.7399 297.609 14.7399C297.223 14.7399 296.876 14.6666 296.569 14.5199C296.263 14.3732 296.023 14.1532 295.849 13.8599C295.676 13.5532 295.589 13.1732 295.589 12.7199V12.5199L295.989 12.5799C295.829 13.0999 295.556 13.5266 295.169 13.8599C294.783 14.1799 294.349 14.4199 293.869 14.5799C293.389 14.7266 292.916 14.7999 292.449 14.7999C291.863 14.7999 291.316 14.6999 290.809 14.4999C290.303 14.2999 289.896 13.9999 289.589 13.5999C289.296 13.1866 289.149 12.6799 289.149 12.0799C289.149 11.3332 289.396 10.7199 289.889 10.2399C290.396 9.74657 291.096 9.41324 291.989 9.2399L295.949 8.4599V9.7799L292.729 10.4399C292.076 10.5732 291.589 10.7599 291.269 10.9999C290.949 11.2399 290.789 11.5732 290.789 11.9999C290.789 12.4132 290.949 12.7532 291.269 13.0199C291.603 13.2732 292.069 13.3999 292.669 13.3999C293.056 13.3999 293.423 13.3532 293.769 13.2599C294.129 13.1532 294.449 12.9999 294.729 12.7999C295.009 12.5866 295.229 12.3266 295.389 12.0199C295.549 11.6999 295.629 11.3266 295.629 10.8999V8.1399Z" fill="#292E3D"/>
<path d="M277.406 14.5999V4.5999H278.806L278.946 6.8399L278.686 6.6199C278.9 6.08657 279.186 5.6599 279.546 5.3399C279.906 5.00657 280.32 4.76657 280.786 4.6199C281.266 4.47324 281.76 4.3999 282.266 4.3999C282.986 4.3999 283.64 4.5399 284.226 4.8199C284.813 5.08657 285.28 5.4999 285.626 6.0599C285.986 6.6199 286.166 7.33324 286.166 8.1999V14.5999H284.566V8.7599C284.566 7.65324 284.326 6.88657 283.846 6.4599C283.38 6.0199 282.8 5.7999 282.106 5.7999C281.626 5.7999 281.146 5.91324 280.666 6.1399C280.186 6.36657 279.786 6.73324 279.466 7.2399C279.16 7.74657 279.007 8.42657 279.007 9.2799V14.5999H277.406Z" fill="#292E3D"/>
<path d="M272.894 2.67979C272.534 2.67979 272.241 2.57312 272.014 2.35978C271.801 2.13312 271.694 1.83979 271.694 1.47979C271.694 1.11979 271.801 0.833118 272.014 0.619784C272.241 0.393118 272.534 0.279785 272.894 0.279785C273.254 0.279785 273.541 0.393118 273.754 0.619784C273.981 0.833118 274.094 1.11979 274.094 1.47979C274.094 1.83979 273.981 2.13312 273.754 2.35978C273.541 2.57312 273.254 2.67979 272.894 2.67979ZM273.694 4.59979V14.5998H272.094V4.59979H273.694Z" fill="#292E3D"/>
<path d="M267.501 0V12.06C267.501 12.5667 267.594 12.92 267.781 13.12C267.967 13.3067 268.267 13.4 268.681 13.4C268.947 13.4 269.167 13.38 269.341 13.34C269.514 13.3 269.747 13.2267 270.041 13.12L269.781 14.52C269.567 14.6133 269.334 14.68 269.081 14.72C268.827 14.7733 268.567 14.8 268.301 14.8C267.487 14.8 266.881 14.58 266.481 14.14C266.094 13.7 265.901 13.0267 265.901 12.12V0H267.501Z" fill="#292E3D"/>
<path d="M258.618 14.7999C257.671 14.7999 256.824 14.5932 256.078 14.1799C255.344 13.7666 254.771 13.1732 254.358 12.3999C253.944 11.6132 253.738 10.6799 253.738 9.5999C253.738 8.5199 253.944 7.59324 254.358 6.8199C254.771 6.03324 255.338 5.43324 256.058 5.0199C256.778 4.60657 257.598 4.3999 258.518 4.3999C259.451 4.3999 260.244 4.5999 260.898 4.9999C261.564 5.3999 262.071 5.94657 262.418 6.6399C262.764 7.3199 262.938 8.08657 262.938 8.9399C262.938 9.16657 262.931 9.37324 262.918 9.5599C262.904 9.74657 262.884 9.91324 262.858 10.0599H254.778V8.6399H262.158L261.338 8.7999C261.338 7.8399 261.071 7.0999 260.538 6.5799C260.018 6.0599 259.331 5.7999 258.478 5.7999C257.824 5.7999 257.258 5.95324 256.778 6.2599C256.311 6.55324 255.944 6.98657 255.678 7.5599C255.424 8.1199 255.298 8.7999 255.298 9.5999C255.298 10.3866 255.431 11.0666 255.698 11.6399C255.964 12.2132 256.338 12.6532 256.818 12.9599C257.311 13.2532 257.898 13.3999 258.578 13.3999C259.311 13.3999 259.904 13.2599 260.358 12.9799C260.824 12.6999 261.198 12.3199 261.478 11.8399L262.738 12.5799C262.484 13.0332 262.158 13.4266 261.758 13.7599C261.371 14.0932 260.911 14.3532 260.378 14.5399C259.858 14.7132 259.271 14.7999 258.618 14.7999Z" fill="#292E3D"/>
<path d="M251.667 11.2202C251.387 11.9669 250.987 12.6135 250.467 13.1602C249.947 13.6935 249.333 14.1002 248.627 14.3802C247.933 14.6602 247.173 14.8002 246.347 14.8002C245.093 14.8002 244.007 14.5269 243.087 13.9802C242.18 13.4202 241.473 12.6335 240.967 11.6202C240.473 10.6069 240.227 9.4002 240.227 8.0002C240.227 6.6002 240.473 5.39353 240.967 4.3802C241.473 3.36686 242.18 2.58686 243.087 2.0402C244.007 1.4802 245.08 1.2002 246.307 1.2002C247.16 1.2002 247.92 1.3202 248.587 1.5602C249.253 1.78686 249.82 2.13353 250.287 2.6002C250.767 3.05353 251.147 3.61353 251.427 4.2802L249.847 5.0202C249.553 4.2602 249.127 3.68686 248.567 3.3002C248.02 2.9002 247.307 2.7002 246.427 2.7002C245.533 2.7002 244.747 2.91353 244.067 3.3402C243.387 3.75353 242.853 4.35353 242.467 5.1402C242.093 5.92686 241.907 6.8802 241.907 8.0002C241.907 9.10686 242.087 10.0602 242.447 10.8602C242.807 11.6469 243.32 12.2535 243.987 12.6802C244.653 13.0935 245.44 13.3002 246.347 13.3002C247.227 13.3002 247.993 13.0802 248.647 12.6402C249.3 12.1869 249.773 11.5135 250.067 10.6202L251.667 11.2202Z" fill="#292E3D"/>
<path d="M229.398 12.2002C229.785 12.2002 230.098 12.3202 230.338 12.5602C230.578 12.8002 230.698 13.1135 230.698 13.5002C230.698 13.8869 230.578 14.2002 230.338 14.4402C230.098 14.6802 229.785 14.8002 229.398 14.8002C229.011 14.8002 228.698 14.6802 228.458 14.4402C228.218 14.2002 228.098 13.8869 228.098 13.5002C228.098 13.1135 228.218 12.8002 228.458 12.5602C228.698 12.3202 229.011 12.2002 229.398 12.2002Z" fill="#292E3D"/>
<path d="M222.579 1.75977V11.8398C222.579 12.3331 222.719 12.6998 222.999 12.9398C223.279 13.1798 223.639 13.2998 224.079 13.2998C224.466 13.2998 224.799 13.2331 225.079 13.0998C225.359 12.9664 225.612 12.7864 225.839 12.5598L226.399 13.8998C226.092 14.1798 225.726 14.3998 225.299 14.5598C224.886 14.7198 224.406 14.7998 223.859 14.7998C223.352 14.7998 222.879 14.7131 222.439 14.5398C221.999 14.3531 221.646 14.0664 221.379 13.6798C221.126 13.2798 220.992 12.7598 220.979 12.1198V2.19977L222.579 1.75977ZM226.219 4.59977V5.97976H218.979V4.59977H226.219Z" fill="#292E3D"/>
<path d="M211.946 1.2002C213.106 1.2002 214.106 1.4402 214.946 1.9202C215.786 2.38686 216.486 3.0802 217.046 4.0002L215.706 5.0402C215.213 4.18686 214.653 3.58686 214.026 3.2402C213.413 2.8802 212.666 2.7002 211.786 2.7002C211.08 2.7002 210.493 2.8002 210.026 3.0002C209.573 3.2002 209.24 3.46686 209.026 3.8002C208.813 4.1202 208.706 4.48686 208.706 4.9002C208.706 5.36686 208.853 5.7802 209.146 6.1402C209.44 6.48686 210.026 6.7602 210.906 6.9602L213.766 7.6002C215.033 7.8802 215.913 8.30686 216.406 8.8802C216.913 9.4402 217.166 10.1402 217.166 10.9802C217.166 11.7269 216.953 12.3935 216.526 12.9802C216.113 13.5535 215.526 14.0002 214.766 14.3202C214.006 14.6402 213.113 14.8002 212.086 14.8002C211.126 14.8002 210.28 14.6735 209.546 14.4202C208.826 14.1535 208.206 13.8002 207.686 13.3602C207.166 12.9202 206.74 12.4269 206.406 11.8802L207.806 10.7402C208.06 11.2469 208.386 11.6935 208.786 12.0802C209.186 12.4669 209.666 12.7669 210.226 12.9802C210.8 13.1935 211.453 13.3002 212.186 13.3002C212.866 13.3002 213.453 13.2202 213.946 13.0602C214.453 12.8869 214.84 12.6402 215.106 12.3202C215.373 11.9869 215.506 11.5869 215.506 11.1202C215.506 10.6935 215.366 10.3135 215.086 9.9802C214.806 9.63353 214.28 9.37353 213.506 9.2002L210.406 8.5002C209.593 8.31353 208.933 8.0602 208.426 7.7402C207.933 7.40686 207.573 7.0202 207.346 6.5802C207.133 6.12686 207.026 5.6402 207.026 5.1202C207.026 4.41353 207.22 3.76686 207.606 3.18019C208.006 2.58019 208.573 2.1002 209.306 1.7402C210.053 1.3802 210.933 1.2002 211.946 1.2002Z" fill="#292E3D"/>
<path d="M188.207 14.5999V4.5999H189.607L189.747 6.8399L189.487 6.6199C189.701 6.08657 189.987 5.6599 190.347 5.3399C190.707 5.00657 191.121 4.76657 191.587 4.6199C192.067 4.47324 192.561 4.3999 193.067 4.3999C193.787 4.3999 194.441 4.5399 195.027 4.8199C195.614 5.08657 196.081 5.4999 196.427 6.0599C196.787 6.6199 196.967 7.33324 196.967 8.1999V14.5999H195.367V8.7599C195.367 7.65324 195.127 6.88657 194.647 6.4599C194.181 6.0199 193.601 5.7999 192.907 5.7999C192.427 5.7999 191.947 5.91324 191.467 6.1399C190.987 6.36657 190.587 6.73324 190.267 7.2399C189.961 7.74657 189.807 8.42657 189.807 9.2799V14.5999H188.207Z" fill="#292E3D"/>
<path d="M183.695 2.67979C183.335 2.67979 183.042 2.57312 182.815 2.35978C182.602 2.13312 182.495 1.83979 182.495 1.47979C182.495 1.11979 182.602 0.833118 182.815 0.619784C183.042 0.393118 183.335 0.279785 183.695 0.279785C184.055 0.279785 184.342 0.393118 184.555 0.619784C184.782 0.833118 184.895 1.11979 184.895 1.47979C184.895 1.83979 184.782 2.13312 184.555 2.35978C184.342 2.57312 184.055 2.67979 183.695 2.67979ZM184.495 4.59979V14.5998H182.895V4.59979H184.495Z" fill="#292E3D"/>
<path d="M180.67 2.75977L181.03 4.17977C181.017 4.17977 180.997 4.17977 180.97 4.17977C180.944 4.17977 180.917 4.17977 180.89 4.17977C180.237 4.17977 179.73 4.3131 179.37 4.57976C179.024 4.8331 178.85 5.24643 178.85 5.81977L177.87 5.31977C177.87 4.79977 177.99 4.34643 178.23 3.95977C178.47 3.5731 178.797 3.27977 179.21 3.07977C179.624 2.86643 180.077 2.75977 180.57 2.75977C180.584 2.75977 180.597 2.75977 180.61 2.75977C180.637 2.75977 180.657 2.75977 180.67 2.75977ZM177.63 13.3198C178.577 13.3198 179.317 13.5398 179.85 13.9798C180.384 14.4064 180.65 14.9798 180.65 15.6998C180.65 16.3531 180.43 16.9198 179.99 17.3998C179.564 17.8798 178.984 18.2464 178.25 18.4998C177.53 18.7664 176.717 18.8998 175.81 18.8998C174.237 18.8998 173.057 18.6331 172.27 18.0998C171.497 17.5664 171.11 16.9264 171.11 16.1798C171.11 15.6464 171.284 15.1664 171.63 14.7398C171.99 14.3264 172.59 14.0931 173.43 14.0398L173.29 14.3398C172.837 14.2198 172.45 14.0198 172.13 13.7398C171.824 13.4464 171.67 13.0264 171.67 12.4798C171.67 11.9331 171.87 11.4664 172.27 11.0798C172.684 10.6798 173.29 10.4331 174.09 10.3398L175.15 10.8798H174.95C174.297 10.9464 173.83 11.1131 173.55 11.3798C173.284 11.6331 173.15 11.9131 173.15 12.2198C173.15 12.5931 173.284 12.8731 173.55 13.0598C173.83 13.2331 174.217 13.3198 174.71 13.3198H177.63ZM175.79 17.5598C176.564 17.5598 177.197 17.4798 177.69 17.3198C178.197 17.1598 178.57 16.9531 178.81 16.6998C179.05 16.4464 179.17 16.1731 179.17 15.8798C179.17 15.5198 179.024 15.2331 178.73 15.0198C178.45 14.8064 177.937 14.6998 177.19 14.6998H174.11C173.684 14.6998 173.324 14.8064 173.03 15.0198C172.737 15.2464 172.59 15.5531 172.59 15.9398C172.59 16.4331 172.87 16.8264 173.43 17.1198C174.004 17.4131 174.79 17.5598 175.79 17.5598ZM175.65 4.39977C176.45 4.39977 177.157 4.54643 177.77 4.83977C178.397 5.11977 178.884 5.5131 179.23 6.01977C179.577 6.52643 179.75 7.1131 179.75 7.77977C179.75 8.4331 179.577 9.01977 179.23 9.53977C178.884 10.0464 178.397 10.4464 177.77 10.7398C177.157 11.0198 176.45 11.1598 175.65 11.1598C174.33 11.1598 173.317 10.8464 172.61 10.2198C171.904 9.57977 171.55 8.76643 171.55 7.77977C171.55 7.1131 171.724 6.52643 172.07 6.01977C172.43 5.5131 172.917 5.11977 173.53 4.83977C174.144 4.54643 174.85 4.39977 175.65 4.39977ZM175.65 5.69977C174.957 5.69977 174.377 5.8931 173.91 6.27977C173.444 6.6531 173.21 7.1531 173.21 7.77977C173.21 8.3931 173.444 8.8931 173.91 9.27977C174.377 9.66643 174.957 9.85977 175.65 9.85977C176.344 9.85977 176.924 9.66643 177.39 9.27977C177.857 8.8931 178.09 8.3931 178.09 7.77977C178.09 7.1531 177.857 6.6531 177.39 6.27977C176.924 5.8931 176.344 5.69977 175.65 5.69977Z" fill="#292E3D"/>
<path d="M167.657 0V12.06C167.657 12.5667 167.75 12.92 167.937 13.12C168.124 13.3067 168.424 13.4 168.837 13.4C169.104 13.4 169.324 13.38 169.497 13.34C169.67 13.3 169.904 13.2267 170.197 13.12L169.937 14.52C169.724 14.6133 169.49 14.68 169.237 14.72C168.984 14.7733 168.724 14.8 168.457 14.8C167.644 14.8 167.037 14.58 166.637 14.14C166.25 13.7 166.057 13.0267 166.057 12.12V0H167.657Z" fill="#292E3D"/>
<path d="M153.683 14.5999V1.3999H162.943V2.8999H155.283V7.1599H161.243V8.6599H155.283V13.0999H163.243V14.5999H153.683Z" fill="#292E3D"/>
<path d="M141.074 14.5999V4.9199C141.074 4.69324 141.074 4.45324 141.074 4.1999C141.087 3.93324 141.1 3.6599 141.114 3.3799C140.66 3.8199 140.134 4.20657 139.534 4.5399C138.934 4.8599 138.32 5.09324 137.694 5.2399L137.274 3.7799C137.514 3.75324 137.814 3.66657 138.174 3.5199C138.547 3.3599 138.934 3.16657 139.334 2.9399C139.747 2.6999 140.127 2.44657 140.474 2.1799C140.82 1.91324 141.087 1.65324 141.274 1.3999H142.674V14.5999H141.074Z" fill="#292E3D"/>
<path d="M130.51 1.2002C131.617 1.2002 132.55 1.49353 133.31 2.08019C134.07 2.65353 134.643 3.45353 135.03 4.4802C135.417 5.49353 135.61 6.66686 135.61 8.0002C135.61 9.4802 135.417 10.7269 135.03 11.7402C134.643 12.7402 134.07 13.5002 133.31 14.0202C132.563 14.5402 131.637 14.8002 130.53 14.8002C129.437 14.8002 128.497 14.5469 127.71 14.0402C126.923 13.5335 126.337 12.7935 125.95 11.8202L127.53 10.9802C127.743 11.6735 128.09 12.2335 128.57 12.6602C129.063 13.0869 129.737 13.3002 130.59 13.3002C131.283 13.3002 131.857 13.1669 132.31 12.9002C132.777 12.6202 133.143 12.2269 133.41 11.7202C133.677 11.2002 133.863 10.5802 133.97 9.8602C134.09 9.1402 134.15 8.3402 134.15 7.4602C134.15 7.43353 134.15 7.40686 134.15 7.3802C134.15 7.3402 134.15 7.30686 134.15 7.2802H134.07C133.91 7.8802 133.63 8.36686 133.23 8.7402C132.83 9.1002 132.377 9.3602 131.87 9.5202C131.377 9.6802 130.883 9.7602 130.39 9.7602C129.523 9.7602 128.757 9.59353 128.09 9.2602C127.423 8.91353 126.903 8.43353 126.53 7.8202C126.157 7.20686 125.97 6.4802 125.97 5.6402C125.97 4.73353 126.15 3.95353 126.51 3.3002C126.87 2.63353 127.39 2.1202 128.07 1.7602C128.75 1.38686 129.563 1.2002 130.51 1.2002ZM130.53 2.74019C129.597 2.74019 128.883 3.0002 128.39 3.5202C127.897 4.02686 127.65 4.7402 127.65 5.6602C127.65 6.44686 127.91 7.07353 128.43 7.5402C128.95 7.99353 129.65 8.2202 130.53 8.2202C131.103 8.2202 131.603 8.10686 132.03 7.8802C132.47 7.6402 132.81 7.3202 133.05 6.9202C133.29 6.50686 133.41 6.03353 133.41 5.5002C133.41 4.9402 133.29 4.45353 133.05 4.0402C132.81 3.62686 132.47 3.30686 132.03 3.0802C131.603 2.85353 131.103 2.74019 130.53 2.74019Z" fill="#292E3D"/>
<path d="M118.71 14.8002C117.536 14.8002 116.496 14.5268 115.59 13.9802C114.696 13.4202 114.09 12.6535 113.77 11.6802L115.37 10.8602C115.53 11.3535 115.75 11.7868 116.03 12.1602C116.31 12.5202 116.676 12.8002 117.13 13.0002C117.596 13.2002 118.176 13.3002 118.87 13.3002C119.456 13.3002 119.95 13.1935 120.35 12.9802C120.75 12.7668 121.056 12.4802 121.27 12.1202C121.483 11.7468 121.59 11.3202 121.59 10.8402C121.59 10.3602 121.496 9.96018 121.31 9.64018C121.136 9.32018 120.856 9.08684 120.47 8.94018C120.083 8.78018 119.576 8.70018 118.95 8.70018C118.803 8.70018 118.643 8.70684 118.47 8.72018C118.296 8.72018 118.116 8.73351 117.93 8.76018V7.16018C118.05 7.17351 118.163 7.18018 118.27 7.18018C118.39 7.18018 118.496 7.18018 118.59 7.18018C119.563 7.18018 120.256 6.99351 120.67 6.62018C121.083 6.23351 121.29 5.63351 121.29 4.82018C121.29 4.12684 121.076 3.60018 120.65 3.24018C120.223 2.88018 119.616 2.70018 118.83 2.70018C117.99 2.70018 117.35 2.88684 116.91 3.26018C116.47 3.62018 116.123 4.11351 115.87 4.74018L114.35 4.02017C114.563 3.46018 114.883 2.96684 115.31 2.54017C115.736 2.11351 116.25 1.78017 116.85 1.54017C117.463 1.30018 118.136 1.18018 118.87 1.18018C119.79 1.18018 120.55 1.34018 121.15 1.66018C121.75 1.96684 122.196 2.38018 122.49 2.90018C122.796 3.42018 122.95 3.99351 122.95 4.62018C122.95 5.10018 122.883 5.53351 122.75 5.92018C122.616 6.29351 122.43 6.62018 122.19 6.90018C121.963 7.18017 121.703 7.40684 121.41 7.58018C121.116 7.74018 120.803 7.84684 120.47 7.90018V7.94018C120.91 7.95351 121.296 8.04018 121.63 8.20018C121.976 8.36018 122.27 8.57351 122.51 8.84018C122.75 9.10684 122.93 9.41351 123.05 9.76018C123.183 10.0935 123.25 10.4468 123.25 10.8202C123.25 11.5935 123.056 12.2802 122.67 12.8802C122.296 13.4802 121.77 13.9535 121.09 14.3002C120.41 14.6335 119.616 14.8002 118.71 14.8002Z" fill="#292E3D"/>
<path d="M107.202 1.2002C107.909 1.2002 108.522 1.3002 109.042 1.5002C109.575 1.68686 110.035 1.98686 110.422 2.4002C110.809 2.8002 111.135 3.32686 111.402 3.9802L109.922 4.6802C109.722 4.06686 109.395 3.58686 108.942 3.2402C108.502 2.8802 107.889 2.7002 107.102 2.7002C106.529 2.7002 106.022 2.84686 105.582 3.1402C105.142 3.4202 104.769 3.81353 104.462 4.3202C104.155 4.82686 103.922 5.4202 103.762 6.1002C103.615 6.7802 103.542 7.51353 103.542 8.3002C103.542 8.32686 103.542 8.36686 103.542 8.4202C103.542 8.47353 103.542 8.55353 103.542 8.6602H103.622C103.769 8.08686 104.035 7.62686 104.422 7.2802C104.822 6.9202 105.269 6.6602 105.762 6.5002C106.269 6.32686 106.762 6.2402 107.242 6.2402C108.135 6.2402 108.915 6.41353 109.582 6.7602C110.249 7.10686 110.762 7.60019 111.122 8.2402C111.495 8.8802 111.682 9.6402 111.682 10.5202C111.682 11.3869 111.495 12.1469 111.122 12.8002C110.749 13.4402 110.222 13.9335 109.542 14.2802C108.875 14.6269 108.075 14.8002 107.142 14.8002C106.035 14.8002 105.102 14.5069 104.342 13.9202C103.582 13.3335 103.009 12.5335 102.622 11.5202C102.235 10.4935 102.042 9.3202 102.042 8.0002C102.042 6.5202 102.269 5.2802 102.722 4.2802C103.175 3.26686 103.789 2.5002 104.562 1.9802C105.349 1.4602 106.229 1.2002 107.202 1.2002ZM107.122 7.7802C106.549 7.7802 106.042 7.9002 105.602 8.1402C105.175 8.36686 104.842 8.68686 104.602 9.1002C104.362 9.5002 104.242 9.96686 104.242 10.5002C104.242 11.0069 104.369 11.4735 104.622 11.9002C104.875 12.3135 105.215 12.6469 105.642 12.9002C106.082 13.1402 106.575 13.2602 107.122 13.2602C108.029 13.2602 108.735 13.0202 109.242 12.5402C109.749 12.0469 110.002 11.3669 110.002 10.5002C110.002 9.9402 109.889 9.4602 109.662 9.0602C109.435 8.64686 109.109 8.33353 108.682 8.1202C108.255 7.89353 107.735 7.7802 107.122 7.7802Z" fill="#292E3D"/>
</svg>
