<svg width="268" height="34" viewBox="0 0 268 34" fill="none" xmlns="http://www.w3.org/2000/svg">
<path d="M249.653 26V8.00002H255.125L255.449 14.192L254.765 13.508C255.005 12.212 255.425 11.132 256.025 10.268C256.649 9.40402 257.417 8.75602 258.329 8.32402C259.265 7.86802 260.309 7.64001 261.461 7.64001C262.709 7.64001 263.789 7.88001 264.701 8.36002C265.637 8.84002 266.369 9.54802 266.897 10.484C267.425 11.42 267.689 12.596 267.689 14.012V26H261.569V15.632C261.569 14.384 261.329 13.52 260.849 13.04C260.369 12.56 259.757 12.32 259.013 12.32C258.437 12.32 257.897 12.464 257.393 12.752C256.889 13.016 256.493 13.448 256.205 14.048C255.917 14.648 255.773 15.452 255.773 16.46V26H249.653Z" fill="#292E3D"/>
<path d="M236.67 7.64001C238.566 7.64001 240.222 8.01201 241.638 8.75601C243.078 9.47601 244.194 10.544 244.986 11.96C245.802 13.352 246.21 15.032 246.21 17C246.21 18.968 245.802 20.66 244.986 22.076C244.194 23.468 243.078 24.536 241.638 25.28C240.222 26 238.566 26.36 236.67 26.36C234.822 26.36 233.178 26 231.738 25.28C230.298 24.536 229.17 23.468 228.354 22.076C227.562 20.66 227.166 18.968 227.166 17C227.166 15.032 227.562 13.352 228.354 11.96C229.17 10.544 230.298 9.47601 231.738 8.75601C233.178 8.01201 234.822 7.64001 236.67 7.64001ZM236.67 11.996C235.974 11.996 235.374 12.164 234.87 12.5C234.366 12.836 233.982 13.376 233.718 14.12C233.454 14.864 233.322 15.824 233.322 17C233.322 18.176 233.454 19.136 233.718 19.88C233.982 20.6 234.366 21.14 234.87 21.5C235.374 21.836 235.974 22.004 236.67 22.004C237.39 22.004 238.002 21.836 238.506 21.5C239.01 21.14 239.394 20.6 239.658 19.88C239.922 19.136 240.054 18.176 240.054 17C240.054 15.824 239.922 14.864 239.658 14.12C239.394 13.376 239.01 12.836 238.506 12.5C238.002 12.164 237.39 11.996 236.67 11.996Z" fill="#292E3D"/>
<path d="M220.686 5.91201C219.438 5.91201 218.526 5.68401 217.95 5.22801C217.398 4.74801 217.122 4.00401 217.122 2.99601C217.122 1.96401 217.398 1.22001 217.95 0.764006C218.526 0.284006 219.438 0.0440063 220.686 0.0440063C221.91 0.0440063 222.81 0.284006 223.386 0.764006C223.962 1.22001 224.25 1.96401 224.25 2.99601C224.25 4.00401 223.962 4.74801 223.386 5.22801C222.81 5.68401 221.91 5.91201 220.686 5.91201ZM223.746 8.00001V26H217.626V8.00001H223.746Z" fill="#292E3D"/>
<path d="M209.435 2.276V19.592C209.435 20.456 209.639 21.08 210.047 21.464C210.479 21.824 211.067 22.004 211.811 22.004C212.387 22.004 212.879 21.944 213.287 21.824C213.719 21.68 214.103 21.476 214.439 21.212L215.087 24.992C214.487 25.424 213.731 25.76 212.819 26C211.907 26.24 210.971 26.36 210.011 26.36C208.643 26.36 207.455 26.168 206.447 25.784C205.463 25.4 204.695 24.788 204.143 23.948C203.615 23.108 203.339 21.992 203.315 20.6V3.968L209.435 2.276ZM214.799 8V12.356H200.219V8H214.799Z" fill="#292E3D"/>
<path d="M191.81 14.588C191.81 13.748 191.57 13.088 191.09 12.608C190.634 12.104 190.01 11.852 189.218 11.852C188.426 11.852 187.742 12.056 187.166 12.464C186.614 12.848 186.23 13.544 186.014 14.552L180.83 13.328C181.166 11.6 182.054 10.22 183.494 9.18802C184.934 8.15601 186.962 7.64001 189.578 7.64001C191.33 7.64001 192.818 7.90402 194.042 8.43202C195.29 8.93602 196.238 9.70402 196.886 10.736C197.558 11.744 197.894 12.992 197.894 14.48V21.068C197.894 22.004 198.314 22.472 199.154 22.472C199.586 22.472 199.934 22.424 200.198 22.328L199.838 25.82C199.118 26.156 198.242 26.324 197.21 26.324C196.274 26.324 195.446 26.18 194.726 25.892C194.006 25.58 193.442 25.124 193.034 24.524C192.626 23.9 192.422 23.12 192.422 22.184V21.968L193.106 21.716C193.106 22.748 192.794 23.612 192.17 24.308C191.57 25.004 190.778 25.52 189.794 25.856C188.834 26.192 187.826 26.36 186.77 26.36C185.546 26.36 184.478 26.168 183.566 25.784C182.654 25.4 181.946 24.848 181.442 24.128C180.962 23.384 180.722 22.472 180.722 21.392C180.722 20.096 181.106 19.028 181.874 18.188C182.666 17.324 183.902 16.724 185.582 16.388L192.386 14.984L192.35 18.224L188.894 18.944C188.174 19.088 187.634 19.304 187.274 19.592C186.938 19.856 186.77 20.264 186.77 20.816C186.77 21.344 186.962 21.74 187.346 22.004C187.73 22.268 188.186 22.4 188.714 22.4C189.122 22.4 189.506 22.34 189.866 22.22C190.25 22.1 190.586 21.92 190.874 21.68C191.162 21.416 191.39 21.092 191.558 20.708C191.726 20.324 191.81 19.868 191.81 19.34V14.588Z" fill="#292E3D"/>
<path d="M173.259 2.276V19.592C173.259 20.456 173.463 21.08 173.871 21.464C174.303 21.824 174.891 22.004 175.635 22.004C176.211 22.004 176.703 21.944 177.111 21.824C177.543 21.68 177.927 21.476 178.263 21.212L178.911 24.992C178.311 25.424 177.555 25.76 176.643 26C175.731 26.24 174.795 26.36 173.835 26.36C172.467 26.36 171.279 26.168 170.271 25.784C169.287 25.4 168.519 24.788 167.967 23.948C167.439 23.108 167.163 21.992 167.139 20.6V3.968L173.259 2.276ZM178.623 8V12.356H164.043V8H178.623Z" fill="#292E3D"/>
<path d="M149.53 26.36C148.306 26.36 147.226 26.156 146.29 25.748C145.378 25.316 144.658 24.632 144.13 23.696C143.602 22.76 143.338 21.536 143.338 20.024V8H149.458V18.584C149.458 19.736 149.686 20.54 150.142 20.996C150.598 21.452 151.246 21.68 152.086 21.68C152.518 21.68 152.926 21.608 153.31 21.464C153.694 21.296 154.03 21.056 154.318 20.744C154.606 20.408 154.822 19.988 154.966 19.484C155.134 18.956 155.218 18.344 155.218 17.648V8H161.338V26H155.866L155.686 22.616C155.11 23.888 154.306 24.836 153.274 25.46C152.242 26.06 150.994 26.36 149.53 26.36Z" fill="#292E3D"/>
<path d="M120.876 33.56V8.00002H126.384L126.708 14.516L125.988 13.76C126.156 12.56 126.528 11.504 127.104 10.592C127.68 9.68002 128.424 8.96002 129.336 8.43202C130.248 7.90402 131.292 7.64001 132.468 7.64001C133.956 7.64001 135.252 8.01201 136.356 8.75601C137.46 9.47601 138.312 10.532 138.912 11.924C139.536 13.292 139.848 14.96 139.848 16.928C139.848 18.896 139.536 20.588 138.912 22.004C138.288 23.42 137.412 24.5 136.284 25.244C135.18 25.988 133.884 26.36 132.396 26.36C130.764 26.36 129.444 25.88 128.436 24.92C127.428 23.936 126.756 22.7 126.42 21.212L126.996 20.348V33.56H120.876ZM130.308 21.86C131.364 21.86 132.192 21.476 132.792 20.708C133.392 19.916 133.692 18.68 133.692 17C133.692 15.32 133.392 14.096 132.792 13.328C132.216 12.536 131.4 12.14 130.344 12.14C129.672 12.14 129.084 12.332 128.58 12.716C128.076 13.076 127.68 13.616 127.392 14.336C127.128 15.056 126.996 15.944 126.996 17C126.996 18.008 127.116 18.884 127.356 19.628C127.62 20.348 128.004 20.9 128.508 21.284C129.012 21.668 129.612 21.86 130.308 21.86Z" fill="#292E3D"/>
<path d="M108.812 26.36C106.82 26.36 105.092 25.988 103.628 25.244C102.188 24.5 101.072 23.432 100.28 22.04C99.488 20.648 99.092 18.968 99.092 17C99.092 15.032 99.488 13.352 100.28 11.96C101.072 10.568 102.176 9.50002 103.592 8.75601C105.032 8.01201 106.676 7.64001 108.524 7.64001C110.42 7.64001 112.028 8.01201 113.348 8.75601C114.692 9.47601 115.712 10.484 116.408 11.78C117.104 13.052 117.452 14.516 117.452 16.172C117.452 16.604 117.44 17.036 117.416 17.468C117.392 17.9 117.356 18.26 117.308 18.548H103.052V15.272H114.608L111.692 16.388C111.692 14.948 111.428 13.844 110.9 13.076C110.396 12.308 109.604 11.924 108.524 11.924C107.756 11.924 107.096 12.104 106.544 12.464C106.016 12.824 105.608 13.388 105.32 14.156C105.056 14.924 104.924 15.908 104.924 17.108C104.924 18.284 105.08 19.244 105.392 19.988C105.704 20.708 106.148 21.236 106.724 21.572C107.3 21.884 107.996 22.04 108.812 22.04C109.724 22.04 110.444 21.86 110.972 21.5C111.524 21.14 111.932 20.636 112.196 19.988L117.092 21.608C116.756 22.64 116.168 23.516 115.328 24.236C114.512 24.932 113.528 25.46 112.376 25.82C111.248 26.18 110.06 26.36 108.812 26.36Z" fill="#292E3D"/>
<path d="M87.2258 2.23999C90.0578 2.23999 92.2538 2.91199 93.8138 4.25599C95.3978 5.57599 96.1898 7.33999 96.1898 9.54799C96.1898 11.972 95.4098 13.82 93.8498 15.092C92.2898 16.364 90.0938 17 87.2618 17L86.6858 17.324H81.9698V26H75.8858V2.23999H87.2258ZM86.3618 12.932C87.5618 12.932 88.4618 12.692 89.0618 12.212C89.6618 11.732 89.9618 10.964 89.9618 9.90799C89.9618 8.87599 89.6618 8.11999 89.0618 7.63999C88.4618 7.15999 87.5618 6.91999 86.3618 6.91999H81.9698V12.932H86.3618ZM89.9978 14.228L97.5938 26H90.7538L84.6698 15.596L89.9978 14.228Z" fill="#292E3D"/>
<path d="M50.2468 26V8.00002H55.6468L55.8988 11.888C56.3548 10.544 57.0268 9.50002 57.9148 8.75601C58.8268 8.01201 59.9788 7.64001 61.3708 7.64001C61.8268 7.64001 62.2108 7.67601 62.5228 7.74802C62.8588 7.82002 63.1228 7.91602 63.3148 8.03602L62.7028 13.076C62.4628 12.98 62.1508 12.908 61.7668 12.86C61.4068 12.788 60.9628 12.752 60.4348 12.752C59.7148 12.752 59.0428 12.908 58.4188 13.22C57.7948 13.532 57.2908 14 56.9068 14.624C56.5468 15.224 56.3668 15.992 56.3668 16.928V26H50.2468Z" fill="#292E3D"/>
<path d="M34.0417 26.36C32.8177 26.36 31.7377 26.156 30.8017 25.748C29.8897 25.316 29.1697 24.632 28.6417 23.696C28.1137 22.76 27.8497 21.536 27.8497 20.024V8H33.9697V18.584C33.9697 19.736 34.1977 20.54 34.6537 20.996C35.1097 21.452 35.7577 21.68 36.5977 21.68C37.0297 21.68 37.4377 21.608 37.8217 21.464C38.2057 21.296 38.5417 21.056 38.8297 20.744C39.1177 20.408 39.3337 19.988 39.4777 19.484C39.6457 18.956 39.7297 18.344 39.7297 17.648V8H45.8497V26H40.3777L40.1977 22.616C39.6217 23.888 38.8177 24.836 37.7857 25.46C36.7537 26.06 35.5057 26.36 34.0417 26.36Z" fill="#292E3D"/>
<path d="M12.5027 1.88C14.9027 1.88 16.9667 2.37201 18.6947 3.35601C20.4467 4.316 21.7907 5.708 22.7267 7.53201C23.6627 9.35601 24.1307 11.552 24.1307 14.12C24.1307 16.688 23.6627 18.884 22.7267 20.708C21.7907 22.532 20.4467 23.936 18.6947 24.92C16.9667 25.88 14.9027 26.36 12.5027 26.36C10.1027 26.36 8.02675 25.88 6.27474 24.92C4.52274 23.936 3.17875 22.532 2.24275 20.708C1.30675 18.884 0.838745 16.688 0.838745 14.12C0.838745 11.552 1.30675 9.35601 2.24275 7.53201C3.17875 5.708 4.52274 4.316 6.27474 3.35601C8.02675 2.37201 10.1027 1.88 12.5027 1.88ZM12.5027 6.74C11.3507 6.74 10.3787 7.016 9.58675 7.568C8.79475 8.12 8.19475 8.94801 7.78675 10.052C7.37875 11.132 7.17475 12.488 7.17475 14.12C7.17475 15.728 7.37875 17.084 7.78675 18.188C8.19475 19.292 8.79475 20.12 9.58675 20.672C10.3787 21.224 11.3507 21.5 12.5027 21.5C13.6547 21.5 14.6147 21.224 15.3827 20.672C16.1747 20.12 16.7747 19.292 17.1827 18.188C17.5907 17.084 17.7947 15.728 17.7947 14.12C17.7947 12.488 17.5907 11.132 17.1827 10.052C16.7747 8.94801 16.1747 8.12 15.3827 7.568C14.6147 7.016 13.6547 6.74 12.5027 6.74Z" fill="#292E3D"/>
</svg>
