<svg width="519" height="137" viewBox="0 0 519 137" fill="none" xmlns="http://www.w3.org/2000/svg">
<path d="M498.269 124.984C500.189 124.984 501.701 125.512 502.805 126.568C503.957 127.624 504.533 129.04 504.533 130.816C504.533 132.64 503.957 134.08 502.805 135.136C501.701 136.144 500.189 136.648 498.269 136.648C496.349 136.648 494.813 136.144 493.661 135.136C492.557 134.08 492.005 132.64 492.005 130.816C492.005 129.04 492.557 127.624 493.661 126.568C494.813 125.512 496.349 124.984 498.269 124.984Z" fill="#292E3D"/>
<path d="M448.723 136V100H457.579L458.155 110.8L456.931 109.648C457.507 107.296 458.419 105.352 459.667 103.816C460.915 102.28 462.427 101.152 464.203 100.432C466.027 99.664 468.019 99.28 470.179 99.28C472.675 99.28 474.883 99.76 476.803 100.72C478.771 101.68 480.307 103.144 481.411 105.112C482.563 107.032 483.139 109.456 483.139 112.384V136H473.275V115.192C473.275 112.12 472.675 110.008 471.475 108.856C470.275 107.656 468.715 107.056 466.795 107.056C465.451 107.056 464.131 107.392 462.835 108.064C461.587 108.688 460.555 109.72 459.739 111.16C458.971 112.6 458.587 114.52 458.587 116.92V136H448.723Z" fill="#292E3D"/>
<path d="M422.037 99.28C425.685 99.28 428.877 100.024 431.613 101.512C434.397 103 436.557 105.136 438.093 107.92C439.677 110.704 440.469 114.064 440.469 118C440.469 121.888 439.677 125.248 438.093 128.08C436.557 130.864 434.397 133 431.613 134.488C428.877 135.976 425.685 136.72 422.037 136.72C418.437 136.72 415.245 135.976 412.461 134.488C409.677 133 407.493 130.864 405.909 128.08C404.373 125.248 403.605 121.888 403.605 118C403.605 114.064 404.373 110.704 405.909 107.92C407.493 105.136 409.677 103 412.461 101.512C415.245 100.024 418.437 99.28 422.037 99.28ZM422.037 106.624C420.213 106.624 418.653 107.056 417.357 107.92C416.109 108.736 415.149 109.984 414.477 111.664C413.805 113.344 413.469 115.456 413.469 118C413.469 120.544 413.805 122.656 414.477 124.336C415.149 126.016 416.109 127.288 417.357 128.152C418.653 128.968 420.213 129.376 422.037 129.376C423.813 129.376 425.325 128.968 426.573 128.152C427.869 127.288 428.853 126.016 429.525 124.336C430.197 122.656 430.533 120.544 430.533 118C430.533 115.456 430.197 113.344 429.525 111.664C428.853 109.984 427.869 108.736 426.573 107.92C425.325 107.056 423.813 106.624 422.037 106.624Z" fill="#292E3D"/>
<path d="M390.269 94.816C388.205 94.816 386.669 94.384 385.661 93.52C384.653 92.608 384.149 91.288 384.149 89.56C384.149 87.784 384.653 86.464 385.661 85.6C386.669 84.688 388.205 84.232 390.269 84.232C392.333 84.232 393.869 84.688 394.877 85.6C395.885 86.464 396.389 87.784 396.389 89.56C396.389 91.288 395.885 92.608 394.877 93.52C393.869 94.384 392.333 94.816 390.269 94.816ZM395.165 100V136H385.301V100H395.165Z" fill="#292E3D"/>
<path d="M361.451 136.72C357.803 136.72 354.467 136.072 351.443 134.776C348.467 133.48 346.043 131.656 344.171 129.304L349.859 123.544C351.011 125.272 352.547 126.688 354.467 127.792C356.387 128.896 358.667 129.448 361.307 129.448C363.179 129.448 364.667 129.184 365.771 128.656C366.923 128.08 367.499 127.192 367.499 125.992C367.499 125.224 367.235 124.576 366.707 124.048C366.179 123.472 365.123 123.016 363.539 122.68L357.203 121.384C353.027 120.52 350.051 119.224 348.275 117.496C346.547 115.72 345.683 113.44 345.683 110.656C345.683 108.688 346.259 106.84 347.411 105.112C348.611 103.384 350.387 101.992 352.739 100.936C355.091 99.832 358.019 99.28 361.523 99.28C365.123 99.28 368.243 99.856 370.883 101.008C373.571 102.112 375.683 103.768 377.219 105.976L371.315 111.736C370.259 110.056 368.867 108.784 367.139 107.92C365.459 107.008 363.683 106.552 361.811 106.552C360.467 106.552 359.315 106.696 358.355 106.984C357.395 107.272 356.675 107.68 356.195 108.208C355.715 108.688 355.475 109.312 355.475 110.08C355.475 110.848 355.811 111.52 356.483 112.096C357.155 112.624 358.379 113.08 360.155 113.464L367.499 114.976C371.051 115.696 373.595 116.92 375.131 118.648C376.667 120.328 377.435 122.368 377.435 124.768C377.435 127.072 376.811 129.136 375.563 130.96C374.363 132.736 372.563 134.152 370.163 135.208C367.811 136.216 364.907 136.72 361.451 136.72Z" fill="#292E3D"/>
<path d="M323.201 136.72C319.553 136.72 316.217 136.072 313.193 134.776C310.217 133.48 307.793 131.656 305.921 129.304L311.609 123.544C312.761 125.272 314.297 126.688 316.217 127.792C318.137 128.896 320.417 129.448 323.057 129.448C324.929 129.448 326.417 129.184 327.521 128.656C328.673 128.08 329.249 127.192 329.249 125.992C329.249 125.224 328.985 124.576 328.457 124.048C327.929 123.472 326.873 123.016 325.289 122.68L318.953 121.384C314.777 120.52 311.801 119.224 310.025 117.496C308.297 115.72 307.433 113.44 307.433 110.656C307.433 108.688 308.009 106.84 309.161 105.112C310.361 103.384 312.137 101.992 314.489 100.936C316.841 99.832 319.769 99.28 323.273 99.28C326.873 99.28 329.993 99.856 332.633 101.008C335.321 102.112 337.433 103.768 338.969 105.976L333.065 111.736C332.009 110.056 330.617 108.784 328.889 107.92C327.209 107.008 325.433 106.552 323.561 106.552C322.217 106.552 321.065 106.696 320.105 106.984C319.145 107.272 318.425 107.68 317.945 108.208C317.465 108.688 317.225 109.312 317.225 110.08C317.225 110.848 317.561 111.52 318.233 112.096C318.905 112.624 320.129 113.08 321.905 113.464L329.249 114.976C332.801 115.696 335.345 116.92 336.881 118.648C338.417 120.328 339.185 122.368 339.185 124.768C339.185 127.072 338.561 129.136 337.313 130.96C336.113 132.736 334.313 134.152 331.913 135.208C329.561 136.216 326.657 136.72 323.201 136.72Z" fill="#292E3D"/>
<path d="M293.449 94.816C291.385 94.816 289.849 94.384 288.841 93.52C287.833 92.608 287.329 91.288 287.329 89.56C287.329 87.784 287.833 86.464 288.841 85.6C289.849 84.688 291.385 84.232 293.449 84.232C295.513 84.232 297.049 84.688 298.057 85.6C299.065 86.464 299.569 87.784 299.569 89.56C299.569 91.288 299.065 92.608 298.057 93.52C297.049 94.384 295.513 94.816 293.449 94.816ZM298.345 100V136H288.481V100H298.345Z" fill="#292E3D"/>
<path d="M220.418 136V100H229.274L229.634 106.48C230.834 104.08 232.466 102.28 234.53 101.08C236.642 99.88 238.97 99.28 241.514 99.28C244.106 99.28 246.434 99.88 248.498 101.08C250.61 102.28 252.194 104.056 253.25 106.408C254.018 104.824 255.05 103.504 256.346 102.448C257.642 101.392 259.082 100.6 260.666 100.072C262.25 99.544 263.858 99.28 265.49 99.28C267.842 99.28 269.978 99.76 271.898 100.72C273.866 101.68 275.426 103.12 276.578 105.04C277.73 106.96 278.306 109.408 278.306 112.384V136H268.442V114.328C268.442 111.688 267.866 109.816 266.714 108.712C265.562 107.608 264.074 107.056 262.25 107.056C260.81 107.056 259.466 107.416 258.218 108.136C257.018 108.856 256.058 109.936 255.338 111.376C254.666 112.768 254.33 114.52 254.33 116.632V136H244.466V114.328C244.466 111.688 243.866 109.816 242.666 108.712C241.514 107.608 240.026 107.056 238.202 107.056C236.954 107.056 235.706 107.392 234.458 108.064C233.258 108.736 232.25 109.792 231.434 111.232C230.666 112.672 230.282 114.568 230.282 116.92V136H220.418Z" fill="#292E3D"/>
<path d="M169.371 136V100H177.939L178.587 107.056C179.547 104.56 180.939 102.64 182.763 101.296C184.635 99.952 186.963 99.28 189.747 99.28C190.563 99.28 191.307 99.352 191.979 99.496C192.651 99.64 193.203 99.832 193.635 100.072L192.483 108.352C192.003 108.16 191.403 108.016 190.683 107.92C190.011 107.824 189.123 107.776 188.019 107.776C186.579 107.776 185.187 108.136 183.843 108.856C182.499 109.528 181.395 110.584 180.531 112.024C179.667 113.416 179.235 115.192 179.235 117.352V136H169.371Z" fill="#292E3D"/>
<path d="M137.392 136.72C134.992 136.72 132.832 136.288 130.912 135.424C128.992 134.56 127.456 133.192 126.304 131.32C125.2 129.4 124.648 126.928 124.648 123.904V100H134.512V121.528C134.512 124.312 135.088 126.256 136.24 127.36C137.392 128.416 139.048 128.944 141.208 128.944C142.216 128.944 143.2 128.776 144.16 128.44C145.12 128.056 145.96 127.48 146.68 126.712C147.448 125.944 148.048 124.96 148.48 123.76C148.912 122.512 149.128 121.048 149.128 119.368V100H158.992V136H150.208L149.848 129.736C148.648 132.136 146.992 133.912 144.88 135.064C142.816 136.168 140.32 136.72 137.392 136.72Z" fill="#292E3D"/>
<path d="M98.1781 99.28C101.826 99.28 105.018 100.024 107.754 101.512C110.538 103 112.698 105.136 114.234 107.92C115.818 110.704 116.61 114.064 116.61 118C116.61 121.888 115.818 125.248 114.234 128.08C112.698 130.864 110.538 133 107.754 134.488C105.018 135.976 101.826 136.72 98.1781 136.72C94.5781 136.72 91.3861 135.976 88.6021 134.488C85.8181 133 83.6341 130.864 82.0501 128.08C80.5141 125.248 79.7461 121.888 79.7461 118C79.7461 114.064 80.5141 110.704 82.0501 107.92C83.6341 105.136 85.8181 103 88.6021 101.512C91.3861 100.024 94.5781 99.28 98.1781 99.28ZM98.1781 106.624C96.3541 106.624 94.7941 107.056 93.4981 107.92C92.2501 108.736 91.2901 109.984 90.6181 111.664C89.9461 113.344 89.6101 115.456 89.6101 118C89.6101 120.544 89.9461 122.656 90.6181 124.336C91.2901 126.016 92.2501 127.288 93.4981 128.152C94.7941 128.968 96.3541 129.376 98.1781 129.376C99.9541 129.376 101.466 128.968 102.714 128.152C104.01 127.288 104.994 126.016 105.666 124.336C106.338 122.656 106.674 120.544 106.674 118C106.674 115.456 106.338 113.344 105.666 111.664C104.994 109.984 104.01 108.736 102.714 107.92C101.466 107.056 99.9541 106.624 98.1781 106.624Z" fill="#292E3D"/>
<path d="M35.9043 136.72C32.2563 136.72 28.9203 136.072 25.8963 134.776C22.9203 133.48 20.4963 131.656 18.6243 129.304L24.3123 123.544C25.4643 125.272 27.0003 126.688 28.9203 127.792C30.8403 128.896 33.1203 129.448 35.7603 129.448C37.6323 129.448 39.1203 129.184 40.2243 128.656C41.3763 128.08 41.9523 127.192 41.9523 125.992C41.9523 125.224 41.6883 124.576 41.1603 124.048C40.6323 123.472 39.5763 123.016 37.9923 122.68L31.6563 121.384C27.4803 120.52 24.5043 119.224 22.7283 117.496C21.0003 115.72 20.1363 113.44 20.1363 110.656C20.1363 108.688 20.7123 106.84 21.8643 105.112C23.0643 103.384 24.8403 101.992 27.1923 100.936C29.5443 99.832 32.4723 99.28 35.9763 99.28C39.5763 99.28 42.6963 99.856 45.3363 101.008C48.0243 102.112 50.1363 103.768 51.6723 105.976L45.7683 111.736C44.7123 110.056 43.3203 108.784 41.5923 107.92C39.9123 107.008 38.1363 106.552 36.2643 106.552C34.9203 106.552 33.7683 106.696 32.8083 106.984C31.8483 107.272 31.1283 107.68 30.6483 108.208C30.1683 108.688 29.9283 109.312 29.9283 110.08C29.9283 110.848 30.2643 111.52 30.9363 112.096C31.6083 112.624 32.8323 113.08 34.6083 113.464L41.9523 114.976C45.5043 115.696 48.0483 116.92 49.5843 118.648C51.1203 120.328 51.8883 122.368 51.8883 124.768C51.8883 127.072 51.2643 129.136 50.0163 130.96C48.8163 132.736 47.0163 134.152 44.6163 135.208C42.2643 136.216 39.3603 136.72 35.9043 136.72Z" fill="#292E3D"/>
<path d="M6.15198 94.816C4.08798 94.816 2.55198 94.384 1.54398 93.52C0.535983 92.608 0.0319824 91.288 0.0319824 89.56C0.0319824 87.784 0.535983 86.464 1.54398 85.6C2.55198 84.688 4.08798 84.232 6.15198 84.232C8.21598 84.232 9.75198 84.688 10.76 85.6C11.768 86.464 12.272 87.784 12.272 89.56C12.272 91.288 11.768 92.608 10.76 93.52C9.75198 94.384 8.21598 94.816 6.15198 94.816ZM11.048 100V136H1.18398V100H11.048Z" fill="#292E3D"/>
<path d="M502.99 52.72C499.342 52.72 496.006 52.072 492.982 50.776C490.006 49.48 487.582 47.656 485.71 45.304L491.398 39.544C492.55 41.272 494.086 42.688 496.006 43.792C497.926 44.896 500.206 45.448 502.846 45.448C504.718 45.448 506.206 45.184 507.31 44.656C508.462 44.08 509.038 43.192 509.038 41.992C509.038 41.224 508.774 40.576 508.246 40.048C507.718 39.472 506.662 39.016 505.078 38.68L498.742 37.384C494.566 36.52 491.59 35.224 489.814 33.496C488.086 31.72 487.222 29.44 487.222 26.656C487.222 24.688 487.798 22.84 488.95 21.112C490.15 19.384 491.926 17.992 494.278 16.936C496.63 15.832 499.558 15.28 503.062 15.28C506.662 15.28 509.782 15.856 512.422 17.008C515.11 18.112 517.222 19.768 518.758 21.976L512.854 27.736C511.798 26.056 510.406 24.784 508.678 23.92C506.998 23.008 505.222 22.552 503.35 22.552C502.006 22.552 500.854 22.696 499.894 22.984C498.934 23.272 498.214 23.68 497.734 24.208C497.254 24.688 497.014 25.312 497.014 26.08C497.014 26.848 497.35 27.52 498.022 28.096C498.694 28.624 499.918 29.08 501.694 29.464L509.038 30.976C512.59 31.696 515.134 32.92 516.67 34.648C518.206 36.328 518.974 38.368 518.974 40.768C518.974 43.072 518.35 45.136 517.102 46.96C515.902 48.736 514.102 50.152 511.702 51.208C509.35 52.216 506.446 52.72 502.99 52.72Z" fill="#292E3D"/>
<path d="M482.267 7.43201L483.419 14.488C483.227 14.488 483.011 14.488 482.771 14.488C482.579 14.44 482.363 14.416 482.123 14.416C479.915 14.416 478.259 14.92 477.155 15.928C476.051 16.888 475.499 18.232 475.499 19.96L471.467 18.304C471.467 16.384 471.851 14.608 472.619 12.976C473.387 11.296 474.515 9.95201 476.003 8.944C477.539 7.93601 479.363 7.43201 481.475 7.43201C481.571 7.43201 481.691 7.43201 481.835 7.43201C481.979 7.43201 482.123 7.43201 482.267 7.43201ZM470.459 45.232C474.347 45.232 477.347 46.072 479.459 47.752C481.571 49.432 482.627 51.784 482.627 54.808C482.627 57.544 481.835 59.848 480.251 61.72C478.667 63.64 476.435 65.08 473.555 66.04C470.723 67 467.435 67.48 463.691 67.48C457.499 67.48 452.963 66.616 450.083 64.888C447.251 63.16 445.835 60.904 445.835 58.12C445.835 56.152 446.579 54.496 448.067 53.152C449.603 51.808 452.123 51.064 455.627 50.92L455.267 52.072C452.771 51.64 450.851 50.824 449.507 49.624C448.211 48.376 447.563 46.672 447.563 44.512C447.563 42.304 448.403 40.504 450.083 39.112C451.811 37.672 454.139 36.832 457.067 36.592L461.387 38.608H460.379C458.315 38.752 456.851 39.184 455.987 39.904C455.171 40.576 454.763 41.344 454.763 42.208C454.763 43.216 455.147 43.984 455.915 44.512C456.731 44.992 457.883 45.232 459.371 45.232H470.459ZM463.763 60.712C466.259 60.712 468.299 60.496 469.883 60.064C471.515 59.632 472.715 59.08 473.483 58.408C474.299 57.736 474.707 56.992 474.707 56.176C474.707 55.264 474.347 54.52 473.627 53.944C472.907 53.416 471.611 53.152 469.739 53.152H457.571C456.419 53.152 455.459 53.44 454.691 54.016C453.971 54.592 453.611 55.384 453.611 56.392C453.611 57.736 454.499 58.792 456.275 59.56C458.099 60.328 460.595 60.712 463.763 60.712ZM463.835 15.28C467.195 15.28 470.099 15.784 472.547 16.792C475.043 17.752 476.939 19.144 478.235 20.968C479.579 22.792 480.251 24.976 480.251 27.52C480.251 30.016 479.579 32.176 478.235 34C476.939 35.824 475.043 37.24 472.547 38.248C470.099 39.208 467.195 39.688 463.835 39.688C458.507 39.688 454.427 38.608 451.595 36.448C448.811 34.24 447.419 31.264 447.419 27.52C447.419 24.976 448.067 22.792 449.363 20.968C450.707 19.144 452.603 17.752 455.051 16.792C457.499 15.784 460.427 15.28 463.835 15.28ZM463.835 21.472C461.915 21.472 460.331 22 459.083 23.056C457.835 24.112 457.211 25.576 457.211 27.448C457.211 29.32 457.835 30.808 459.083 31.912C460.331 32.968 461.915 33.496 463.835 33.496C465.755 33.496 467.315 32.968 468.515 31.912C469.763 30.808 470.387 29.32 470.387 27.448C470.387 25.576 469.763 24.112 468.515 23.056C467.315 22 465.755 21.472 463.835 21.472Z" fill="#292E3D"/>
<path d="M404.496 52V16H413.352L413.928 26.8L412.704 25.648C413.28 23.296 414.192 21.352 415.44 19.816C416.688 18.28 418.2 17.152 419.976 16.432C421.8 15.664 423.792 15.28 425.952 15.28C428.448 15.28 430.656 15.76 432.576 16.72C434.544 17.68 436.08 19.144 437.184 21.112C438.336 23.032 438.912 25.456 438.912 28.384V52H429.048V31.192C429.048 28.12 428.448 26.008 427.248 24.856C426.048 23.656 424.488 23.056 422.568 23.056C421.224 23.056 419.904 23.392 418.608 24.064C417.36 24.688 416.328 25.72 415.512 27.16C414.744 28.6 414.36 30.52 414.36 32.92V52H404.496Z" fill="#292E3D"/>
<path d="M389.144 10.816C387.08 10.816 385.544 10.384 384.536 9.51999C383.528 8.608 383.024 7.288 383.024 5.56C383.024 3.784 383.528 2.46399 384.536 1.59999C385.544 0.687995 387.08 0.231995 389.144 0.231995C391.208 0.231995 392.744 0.687995 393.752 1.59999C394.76 2.46399 395.264 3.784 395.264 5.56C395.264 7.288 394.76 8.608 393.752 9.51999C392.744 10.384 391.208 10.816 389.144 10.816ZM394.04 16V52H384.176V16H394.04Z" fill="#292E3D"/>
<path d="M339.598 52V0.231995H349.462V22.12C350.614 19.816 352.198 18.112 354.214 17.008C356.23 15.856 358.51 15.28 361.054 15.28C363.55 15.28 365.758 15.76 367.678 16.72C369.646 17.68 371.182 19.144 372.286 21.112C373.438 23.032 374.014 25.456 374.014 28.384V52H364.15V31.264C364.15 28.144 363.55 26.008 362.35 24.856C361.15 23.656 359.614 23.056 357.742 23.056C356.35 23.056 355.006 23.392 353.71 24.064C352.462 24.688 351.43 25.744 350.614 27.232C349.846 28.672 349.462 30.592 349.462 32.992V52H339.598Z" fill="#292E3D"/>
<path d="M320.842 4.98401V40.264C320.842 41.992 321.274 43.264 322.138 44.08C323.05 44.848 324.274 45.232 325.81 45.232C327.01 45.232 328.066 45.064 328.978 44.728C329.89 44.344 330.706 43.84 331.426 43.216L333.01 49.768C331.858 50.68 330.418 51.4 328.69 51.928C326.962 52.456 325.138 52.72 323.218 52.72C320.818 52.72 318.682 52.36 316.81 51.64C314.986 50.92 313.546 49.768 312.49 48.184C311.482 46.6 310.978 44.488 310.978 41.848V7.72001L320.842 4.98401ZM332.362 16V23.344H304.354V16H332.362Z" fill="#292E3D"/>
<path d="M280.61 7.43201L281.762 14.488C281.57 14.488 281.354 14.488 281.114 14.488C280.922 14.44 280.706 14.416 280.466 14.416C278.258 14.416 276.602 14.92 275.498 15.928C274.394 16.888 273.842 18.232 273.842 19.96L269.81 18.304C269.81 16.384 270.194 14.608 270.962 12.976C271.73 11.296 272.858 9.95201 274.346 8.944C275.882 7.93601 277.706 7.43201 279.818 7.43201C279.914 7.43201 280.034 7.43201 280.178 7.43201C280.322 7.43201 280.466 7.43201 280.61 7.43201ZM268.802 45.232C272.69 45.232 275.69 46.072 277.802 47.752C279.914 49.432 280.97 51.784 280.97 54.808C280.97 57.544 280.178 59.848 278.594 61.72C277.01 63.64 274.778 65.08 271.898 66.04C269.066 67 265.778 67.48 262.034 67.48C255.842 67.48 251.306 66.616 248.426 64.888C245.594 63.16 244.178 60.904 244.178 58.12C244.178 56.152 244.922 54.496 246.41 53.152C247.946 51.808 250.466 51.064 253.97 50.92L253.61 52.072C251.114 51.64 249.194 50.824 247.85 49.624C246.554 48.376 245.906 46.672 245.906 44.512C245.906 42.304 246.746 40.504 248.426 39.112C250.154 37.672 252.482 36.832 255.41 36.592L259.73 38.608H258.722C256.658 38.752 255.194 39.184 254.33 39.904C253.514 40.576 253.106 41.344 253.106 42.208C253.106 43.216 253.49 43.984 254.258 44.512C255.074 44.992 256.226 45.232 257.714 45.232H268.802ZM262.106 60.712C264.602 60.712 266.642 60.496 268.226 60.064C269.858 59.632 271.058 59.08 271.826 58.408C272.642 57.736 273.05 56.992 273.05 56.176C273.05 55.264 272.69 54.52 271.97 53.944C271.25 53.416 269.954 53.152 268.082 53.152H255.914C254.762 53.152 253.802 53.44 253.034 54.016C252.314 54.592 251.954 55.384 251.954 56.392C251.954 57.736 252.842 58.792 254.618 59.56C256.442 60.328 258.938 60.712 262.106 60.712ZM262.178 15.28C265.538 15.28 268.442 15.784 270.89 16.792C273.386 17.752 275.282 19.144 276.578 20.968C277.922 22.792 278.594 24.976 278.594 27.52C278.594 30.016 277.922 32.176 276.578 34C275.282 35.824 273.386 37.24 270.89 38.248C268.442 39.208 265.538 39.688 262.178 39.688C256.85 39.688 252.77 38.608 249.938 36.448C247.154 34.24 245.762 31.264 245.762 27.52C245.762 24.976 246.41 22.792 247.706 20.968C249.05 19.144 250.946 17.752 253.394 16.792C255.842 15.784 258.77 15.28 262.178 15.28ZM262.178 21.472C260.258 21.472 258.674 22 257.426 23.056C256.178 24.112 255.554 25.576 255.554 27.448C255.554 29.32 256.178 30.808 257.426 31.912C258.674 32.968 260.258 33.496 262.178 33.496C264.098 33.496 265.658 32.968 266.858 31.912C268.106 30.808 268.73 29.32 268.73 27.448C268.73 25.576 268.106 24.112 266.858 23.056C265.658 22 264.098 21.472 262.178 21.472Z" fill="#292E3D"/>
<path d="M202.84 52V16H211.696L212.272 26.8L211.048 25.648C211.624 23.296 212.536 21.352 213.784 19.816C215.032 18.28 216.544 17.152 218.32 16.432C220.144 15.664 222.136 15.28 224.296 15.28C226.792 15.28 229 15.76 230.92 16.72C232.888 17.68 234.424 19.144 235.528 21.112C236.68 23.032 237.256 25.456 237.256 28.384V52H227.392V31.192C227.392 28.12 226.792 26.008 225.592 24.856C224.392 23.656 222.832 23.056 220.912 23.056C219.568 23.056 218.248 23.392 216.952 24.064C215.704 24.688 214.672 25.72 213.856 27.16C213.088 28.6 212.704 30.52 212.704 32.92V52H202.84Z" fill="#292E3D"/>
<path d="M187.488 10.816C185.424 10.816 183.888 10.384 182.88 9.51999C181.872 8.608 181.368 7.288 181.368 5.56C181.368 3.784 181.872 2.46399 182.88 1.59999C183.888 0.687995 185.424 0.231995 187.488 0.231995C189.552 0.231995 191.088 0.687995 192.096 1.59999C193.104 2.46399 193.608 3.784 193.608 5.56C193.608 7.288 193.104 8.608 192.096 9.51999C191.088 10.384 189.552 10.816 187.488 10.816ZM192.384 16V52H182.52V16H192.384Z" fill="#292E3D"/>
<path d="M150.987 52.72C148.011 52.72 145.347 51.976 142.995 50.488C140.691 49 138.867 46.864 137.523 44.08C136.227 41.296 135.579 37.96 135.579 34.072C135.579 30.088 136.275 26.704 137.667 23.92C139.059 21.088 140.931 18.952 143.283 17.512C145.683 16.024 148.371 15.28 151.347 15.28C154.515 15.28 157.131 16.192 159.195 18.016C161.259 19.84 162.603 22.192 163.227 25.072L162.291 26.224V0.231995H172.155V52H163.299L162.651 41.056L163.875 41.632C163.539 43.888 162.771 45.856 161.571 47.536C160.371 49.168 158.859 50.44 157.035 51.352C155.211 52.264 153.195 52.72 150.987 52.72ZM153.867 45.16C155.595 45.16 157.083 44.728 158.331 43.864C159.579 42.952 160.539 41.632 161.211 39.904C161.931 38.176 162.291 36.112 162.291 33.712C162.291 31.408 161.955 29.464 161.283 27.88C160.611 26.248 159.651 25 158.403 24.136C157.155 23.272 155.691 22.84 154.011 22.84C151.323 22.84 149.211 23.8 147.675 25.72C146.187 27.592 145.443 30.352 145.443 34C145.443 37.648 146.187 40.432 147.675 42.352C149.163 44.224 151.227 45.16 153.867 45.16Z" fill="#292E3D"/>
<path d="M124.107 0.231995V40.912C124.107 42.592 124.395 43.768 124.971 44.44C125.547 45.112 126.507 45.448 127.851 45.448C128.667 45.448 129.339 45.4 129.867 45.304C130.395 45.16 131.067 44.968 131.883 44.728L131.019 51.208C130.203 51.688 129.171 52.048 127.923 52.288C126.723 52.576 125.523 52.72 124.323 52.72C120.819 52.72 118.251 51.88 116.619 50.2C115.035 48.472 114.243 45.736 114.243 41.992V0.231995H124.107Z" fill="#292E3D"/>
<path d="M99.0348 10.816C96.9708 10.816 95.4348 10.384 94.4268 9.51999C93.4188 8.608 92.9148 7.288 92.9148 5.56C92.9148 3.784 93.4188 2.46399 94.4268 1.59999C95.4348 0.687995 96.9708 0.231995 99.0348 0.231995C101.099 0.231995 102.635 0.687995 103.643 1.59999C104.651 2.46399 105.155 3.784 105.155 5.56C105.155 7.288 104.651 8.608 103.643 9.51999C102.635 10.384 101.099 10.816 99.0348 10.816ZM103.931 16V52H94.0668V16H103.931Z" fill="#292E3D"/>
<path d="M62.087 52.72C59.687 52.72 57.527 52.288 55.607 51.424C53.687 50.56 52.151 49.192 50.999 47.32C49.895 45.4 49.343 42.928 49.343 39.904V16H59.207V37.528C59.207 40.312 59.783 42.256 60.935 43.36C62.087 44.416 63.743 44.944 65.903 44.944C66.911 44.944 67.895 44.776 68.855 44.44C69.815 44.056 70.655 43.48 71.375 42.712C72.143 41.944 72.743 40.96 73.175 39.76C73.607 38.512 73.823 37.048 73.823 35.368V16H83.687V52H74.903L74.543 45.736C73.343 48.136 71.687 49.912 69.575 51.064C67.511 52.168 65.015 52.72 62.087 52.72Z" fill="#292E3D"/>
<path d="M2.19202 52V4.48001H23C28.76 4.48001 33.008 5.60801 35.744 7.86401C38.48 10.12 39.848 13.312 39.848 17.44C39.848 19.984 39.08 22.24 37.544 24.208C36.008 26.176 33.752 27.424 30.776 27.952V28.024C34.088 28.504 36.632 29.752 38.408 31.768C40.184 33.784 41.072 36.184 41.072 38.968C41.072 43.048 39.584 46.24 36.608 48.544C33.68 50.848 29.384 52 23.72 52H2.19202ZM11.84 44.512H22.856C25.544 44.512 27.536 43.96 28.832 42.856C30.128 41.752 30.776 40.216 30.776 38.248C30.776 36.232 30.128 34.696 28.832 33.64C27.536 32.584 25.544 32.056 22.856 32.056H11.84V44.512ZM11.84 24.424H21.704C26.936 24.424 29.552 22.384 29.552 18.304C29.552 14.224 26.936 12.184 21.704 12.184H11.84V24.424Z" fill="#292E3D"/>
</svg>
